<?xml version="1.0" encoding="UTF-8"?>
<svg id="Layer_1" data-name="Layer 1" xmlns="http://www.w3.org/2000/svg" xmlns:xlink="http://www.w3.org/1999/xlink" viewBox="0 0 464.92 111.26">
  <defs>
    <style>
      .cls-1 {
        fill: #2f9cd7;
      }

      .cls-2 {
        fill: url(#linear-gradient-2);
      }

      .cls-3 {
        fill: url(#linear-gradient-3);
      }

      .cls-4 {
        fill: url(#linear-gradient);
      }
    </style>
    <linearGradient id="linear-gradient" x1="61.87" y1="42.64" x2="20.28" y2="114.69" gradientUnits="userSpaceOnUse">
      <stop offset="0" stop-color="#135275"/>
      <stop offset="1" stop-color="#2e9bd6"/>
    </linearGradient>
    <linearGradient id="linear-gradient-2" x1="39.27" y1="79.57" x2="122.46" y2="79.57" xlink:href="#linear-gradient"/>
    <linearGradient id="linear-gradient-3" x1="82.56" y1="80.68" x2="40.96" y2="8.63" xlink:href="#linear-gradient"/>
  </defs>
  <g>
    <path class="cls-1" d="M169.04,45.76l-2.53-6.2h-11.69l-2.53,6.2h-6.2l11.84-27.83h5.6l11.84,27.83h-6.36ZM160.67,25.23l-3.67,8.96h7.34l-3.67-8.96Z"/>
    <path class="cls-1" d="M187.55,45.76v-27.63h20.81v5.41h-14.8v5.61h13.03v5.41h-13.03v5.81h15v5.41h-21Z"/>
    <path class="cls-1" d="M238.68,45.76l-5.92-8.84h-4.78v8.84h-6.08v-27.63h12.63c3.29,0,5.85.8,7.68,2.41,1.83,1.61,2.74,3.84,2.74,6.71v.08c0,2.24-.55,4.06-1.64,5.47-1.09,1.41-2.52,2.44-4.28,3.1l6.75,9.87h-7.11ZM238.8,27.56c0-1.31-.42-2.3-1.26-2.96-.84-.66-2.01-.99-3.51-.99h-6.04v7.94h6.16c1.5,0,2.65-.36,3.45-1.07s1.2-1.66,1.2-2.84v-.08Z"/>
    <path class="cls-1" d="M285.38,37.49c-.74,1.73-1.76,3.24-3.06,4.54-1.3,1.3-2.86,2.33-4.66,3.08-1.8.75-3.77,1.13-5.9,1.13s-4.09-.38-5.88-1.13c-1.79-.75-3.33-1.76-4.64-3.04-1.3-1.28-2.32-2.78-3.04-4.5-.72-1.72-1.08-3.57-1.08-5.55v-.08c0-1.97.37-3.82,1.11-5.55.74-1.72,1.76-3.24,3.06-4.54,1.3-1.3,2.86-2.33,4.66-3.08,1.8-.75,3.77-1.12,5.9-1.12s4.09.38,5.88,1.12c1.79.75,3.34,1.76,4.64,3.04,1.3,1.28,2.31,2.78,3.04,4.5.72,1.73,1.09,3.57,1.09,5.55v.08c0,1.98-.37,3.82-1.11,5.55ZM280.13,31.94c0-1.18-.2-2.3-.61-3.35-.41-1.05-.99-1.97-1.74-2.76-.75-.79-1.64-1.41-2.66-1.88-1.03-.46-2.14-.69-3.36-.69s-2.36.22-3.37.67-1.88,1.07-2.61,1.86c-.72.79-1.29,1.7-1.7,2.74-.41,1.04-.61,2.15-.61,3.33v.08c0,1.19.2,2.3.61,3.36s.99,1.97,1.74,2.76c.75.79,1.63,1.42,2.64,1.88,1.01.46,2.14.69,3.37.69s2.33-.22,3.36-.67,1.9-1.07,2.63-1.86c.72-.79,1.29-1.7,1.7-2.74.41-1.04.61-2.15.61-3.33v-.08Z"/>
    <path class="cls-1" d="M319.02,41.24c-.5,1.07-1.19,1.96-2.08,2.69-.89.72-1.95,1.28-3.18,1.66-1.23.38-2.6.57-4.1.57-2.11,0-4.17-.36-6.2-1.09-2.03-.72-3.87-1.83-5.53-3.33l3.59-4.3c1.26,1.03,2.56,1.84,3.89,2.45,1.33.61,2.78.91,4.36.91,1.26,0,2.24-.23,2.94-.69.7-.46,1.05-1.1,1.05-1.91v-.08c0-.4-.07-.74-.22-1.04-.15-.3-.42-.58-.83-.85-.41-.26-.98-.53-1.7-.79-.73-.26-1.67-.54-2.83-.83-1.4-.34-2.66-.72-3.8-1.15-1.14-.42-2.1-.94-2.89-1.56-.79-.62-1.4-1.39-1.84-2.31-.44-.92-.65-2.07-.65-3.43v-.08c0-1.27.23-2.4.71-3.42.47-1.02,1.13-1.89,1.98-2.63.85-.74,1.86-1.3,3.05-1.7,1.18-.4,2.48-.59,3.9-.59,2.03,0,3.89.3,5.59.91,1.7.61,3.26,1.47,4.68,2.61l-3.16,4.58c-1.24-.84-2.45-1.51-3.63-2-1.18-.49-2.37-.73-3.55-.73s-2.07.23-2.66.69c-.59.46-.89,1.03-.89,1.72v.08c0,.45.09.84.26,1.17.17.33.48.62.93.89.45.26,1.06.51,1.84.75.78.23,1.76.51,2.95.83,1.4.37,2.65.78,3.74,1.24,1.1.46,2.02,1.01,2.77,1.66.75.65,1.32,1.4,1.7,2.27.38.87.58,1.91.58,3.12v.08c0,1.37-.25,2.58-.75,3.65Z"/>
    <path class="cls-1" d="M353.95,31.99c-.58,1.21-1.38,2.22-2.39,3.04-1.01.82-2.2,1.43-3.55,1.83s-2.81.61-4.36.61h-4.62v8.29h-6.08v-27.63h11.29c1.66,0,3.14.23,4.44.69,1.3.46,2.41,1.11,3.32,1.95.91.84,1.6,1.85,2.09,3.02.49,1.17.73,2.47.73,3.89v.08c0,1.61-.29,3.01-.87,4.22ZM348.66,27.8c0-1.37-.44-2.41-1.32-3.12-.88-.71-2.09-1.06-3.61-1.06h-4.7v8.45h4.82c1.53,0,2.71-.4,3.55-1.2.84-.8,1.26-1.8,1.26-2.98v-.08Z"/>
    <path class="cls-1" d="M387.78,45.76l-2.53-6.2h-11.69l-2.53,6.2h-6.2l11.84-27.83h5.6l11.84,27.83h-6.36ZM379.41,25.23l-3.67,8.96h7.34l-3.67-8.96Z"/>
    <path class="cls-1" d="M428.36,43.36c-.76.6-1.6,1.12-2.51,1.56s-1.9.76-2.98.99c-1.08.22-2.29.34-3.63.34-2.03,0-3.91-.37-5.64-1.11-1.74-.74-3.24-1.74-4.5-3.02-1.26-1.28-2.25-2.79-2.96-4.52-.71-1.74-1.06-3.59-1.06-5.57v-.08c0-1.97.35-3.82,1.06-5.55.71-1.72,1.7-3.24,2.96-4.54,1.26-1.3,2.78-2.33,4.54-3.08,1.76-.75,3.71-1.12,5.84-1.12,1.29,0,2.47.11,3.53.31,1.07.21,2.03.5,2.9.87.87.37,1.67.82,2.41,1.34.74.53,1.42,1.11,2.05,1.73l-3.87,4.46c-1.08-.97-2.18-1.74-3.3-2.29s-2.38-.83-3.77-.83c-1.16,0-2.23.22-3.22.67-.99.45-1.84,1.07-2.55,1.86-.71.79-1.26,1.7-1.66,2.74-.4,1.04-.59,2.15-.59,3.33v.08c0,1.19.2,2.3.59,3.36.4,1.05.94,1.97,1.64,2.76s1.54,1.42,2.53,1.88c.99.46,2.07.69,3.26.69,1.58,0,2.92-.29,4.01-.87,1.09-.58,2.18-1.37,3.26-2.37l3.87,3.91c-.71.76-1.45,1.45-2.21,2.05Z"/>
    <path class="cls-1" d="M443.32,45.76v-27.63h20.81v5.41h-14.8v5.61h13.03v5.41h-13.03v5.81h15v5.41h-21Z"/>
    <path class="cls-1" d="M170.1,90.73c-.76.61-1.6,1.12-2.51,1.56-.91.43-1.9.76-2.98.99-1.08.22-2.29.33-3.63.33-2.03,0-3.91-.37-5.64-1.11s-3.24-1.74-4.5-3.02c-1.26-1.28-2.25-2.78-2.96-4.52s-1.06-3.59-1.06-5.56v-.08c0-1.97.35-3.82,1.06-5.55.71-1.72,1.7-3.24,2.96-4.54,1.26-1.3,2.78-2.33,4.54-3.08,1.76-.75,3.71-1.12,5.84-1.12,1.29,0,2.47.11,3.53.31,1.07.21,2.03.5,2.9.87.87.37,1.67.82,2.41,1.34.74.53,1.42,1.11,2.05,1.74l-3.87,4.46c-1.08-.97-2.18-1.73-3.3-2.29s-2.38-.83-3.77-.83c-1.16,0-2.23.22-3.22.67-.99.45-1.84,1.07-2.55,1.86-.71.79-1.26,1.71-1.66,2.74-.4,1.04-.59,2.15-.59,3.33v.08c0,1.19.2,2.3.59,3.35.4,1.05.94,1.98,1.64,2.77.7.79,1.54,1.41,2.53,1.87.99.46,2.07.69,3.26.69,1.58,0,2.92-.29,4.01-.87,1.09-.58,2.18-1.37,3.26-2.37l3.87,3.91c-.71.76-1.45,1.45-2.21,2.05Z"/>
    <path class="cls-1" d="M212.11,84.86c-.74,1.73-1.76,3.24-3.06,4.54-1.3,1.3-2.86,2.33-4.66,3.08s-3.77,1.12-5.9,1.12-4.09-.38-5.88-1.12c-1.79-.75-3.33-1.76-4.64-3.04s-2.32-2.78-3.04-4.5c-.72-1.72-1.08-3.57-1.08-5.55v-.08c0-1.97.37-3.82,1.11-5.55.74-1.72,1.76-3.24,3.06-4.54,1.3-1.3,2.86-2.33,4.66-3.08,1.8-.75,3.77-1.12,5.9-1.12s4.09.37,5.88,1.12c1.79.75,3.34,1.76,4.64,3.04,1.3,1.28,2.31,2.78,3.04,4.5.72,1.73,1.09,3.57,1.09,5.55v.08c0,1.97-.37,3.82-1.11,5.55ZM206.86,79.32c0-1.19-.2-2.3-.61-3.36-.41-1.05-.99-1.97-1.74-2.76-.75-.79-1.64-1.41-2.66-1.87-1.03-.46-2.14-.69-3.36-.69s-2.36.22-3.37.67c-1.01.45-1.88,1.07-2.61,1.86-.72.79-1.29,1.71-1.7,2.74-.41,1.04-.61,2.15-.61,3.33v.08c0,1.19.2,2.3.61,3.35.41,1.05.99,1.98,1.74,2.77.75.79,1.63,1.41,2.64,1.87,1.01.46,2.14.69,3.37.69s2.33-.22,3.36-.67c1.03-.45,1.9-1.06,2.63-1.85.72-.79,1.29-1.7,1.7-2.74s.61-2.15.61-3.33v-.08Z"/>
    <path class="cls-1" d="M248.15,93.14v-18.04l-7.78,11.8h-.16l-7.7-11.68v17.92h-6v-27.64h6.55l7.26,11.68,7.26-11.68h6.55v27.64h-6Z"/>
    <path class="cls-1" d="M289.68,79.36c-.58,1.21-1.38,2.23-2.39,3.04-1.01.82-2.2,1.43-3.55,1.84-1.36.41-2.81.61-4.36.61h-4.62v8.29h-6.08v-27.64h11.29c1.66,0,3.14.23,4.44.69,1.3.46,2.41,1.11,3.32,1.95.91.84,1.6,1.85,2.09,3.02.49,1.17.73,2.47.73,3.89v.08c0,1.61-.29,3.02-.87,4.22ZM284.39,75.17c0-1.37-.44-2.41-1.32-3.12s-2.09-1.07-3.61-1.07h-4.7v8.45h4.82c1.53,0,2.71-.4,3.55-1.2s1.26-1.8,1.26-2.98v-.08Z"/>
    <path class="cls-1" d="M325.74,86.58c-.57,1.55-1.38,2.85-2.43,3.89-1.05,1.04-2.33,1.82-3.83,2.33-1.5.51-3.17.77-5.01.77-3.71,0-6.63-1.03-8.76-3.08-2.13-2.05-3.2-5.12-3.2-9.2v-15.79h6.08v15.63c0,2.26.53,3.97,1.58,5.11,1.05,1.15,2.51,1.72,4.38,1.72s3.33-.55,4.38-1.66c1.05-1.11,1.58-2.76,1.58-4.97v-15.83h6.08v15.59c0,2.1-.28,3.94-.85,5.49Z"/>
    <path class="cls-1" d="M353.2,71.11v22.03h-6.08v-22.03h-8.41v-5.61h22.9v5.61h-8.41Z"/>
    <path class="cls-1" d="M374.16,93.14v-27.64h20.81v5.41h-14.8v5.61h13.03v5.41h-13.03v5.8h15v5.41h-21Z"/>
    <path class="cls-1" d="M425.28,93.14l-5.92-8.84h-4.78v8.84h-6.08v-27.64h12.63c3.29,0,5.85.8,7.68,2.41,1.83,1.6,2.74,3.84,2.74,6.71v.08c0,2.24-.55,4.06-1.64,5.47-1.09,1.41-2.52,2.44-4.28,3.1l6.75,9.87h-7.11ZM425.4,74.94c0-1.32-.42-2.3-1.26-2.96-.84-.66-2.01-.99-3.51-.99h-6.04v7.94h6.16c1.5,0,2.65-.36,3.45-1.07.8-.71,1.2-1.66,1.2-2.84v-.08Z"/>
    <path class="cls-1" d="M464.17,88.62c-.5,1.07-1.19,1.96-2.08,2.68-.89.73-1.95,1.28-3.18,1.66-1.23.38-2.6.58-4.1.58-2.11,0-4.17-.36-6.2-1.09-2.03-.73-3.87-1.84-5.53-3.34l3.59-4.3c1.26,1.02,2.56,1.84,3.89,2.45,1.33.6,2.78.91,4.36.91,1.26,0,2.24-.23,2.94-.69.7-.46,1.05-1.1,1.05-1.91v-.08c0-.4-.07-.74-.22-1.05-.15-.3-.42-.58-.83-.85-.41-.26-.98-.53-1.7-.79-.73-.26-1.67-.54-2.83-.83-1.4-.34-2.66-.72-3.8-1.14-1.14-.42-2.1-.94-2.89-1.56-.79-.62-1.4-1.39-1.84-2.31-.44-.92-.65-2.07-.65-3.43v-.08c0-1.26.23-2.4.71-3.42.47-1.01,1.13-1.89,1.98-2.62.85-.74,1.86-1.3,3.05-1.7,1.18-.4,2.48-.59,3.9-.59,2.03,0,3.89.31,5.59.91s3.26,1.47,4.68,2.61l-3.16,4.58c-1.24-.84-2.45-1.51-3.63-1.99-1.18-.49-2.37-.73-3.55-.73s-2.07.23-2.66.69c-.59.46-.89,1.03-.89,1.72v.08c0,.45.09.84.26,1.16.17.33.48.63.93.89.45.26,1.06.51,1.84.75.78.24,1.76.51,2.95.83,1.4.37,2.65.78,3.74,1.24,1.1.46,2.02,1.02,2.77,1.66.75.65,1.32,1.4,1.7,2.27.38.87.58,1.91.58,3.12v.08c0,1.37-.25,2.59-.75,3.65Z"/>
  </g>
  <g>
    <path class="cls-4" d="M58.86,111.26H19.66c-5.01,0-9.41-1.81-12.76-4.69-.48-.42-.93-.85-1.36-1.3-.67-.69-1.27-1.41-1.81-2.19-.38-.51-.71-1.03-1.02-1.57-.31-.54-.62-1.1-.88-1.66-.26-.58-.5-1.15-.71-1.74-1.81-5.09-1.54-10.97,1.53-16.31l2.63-4.56,19.35-33.5c7.59-13.01,26.43-12.99,33.97.07l2.63,4.56-16.68,28.88-2.63,4.56c-7.54,13.06,1.86,29.39,16.93,29.45Z"/>
    <path class="cls-2" d="M116.92,105.28c-.43.45-.89.88-1.37,1.3-.72.62-1.48,1.19-2.29,1.7-.54.34-1.1.65-1.68.94-.58.29-1.18.55-1.78.79-.62.22-1.24.43-1.89.6-1.62.42-3.32.65-5.12.65h-43.94c-15.07-.07-24.47-16.39-16.93-29.45l2.63-4.56h38.6c15.08,0,24.52-16.3,17.04-29.37l19.6,33.93c4.69,8.13,2.83,17.51-2.88,23.47Z"/>
    <path class="cls-3" d="M83.16,77.25h-5.26l-16.66-28.88-2.63-4.56c-7.54-13.05-26.38-13.08-33.97-.07l4.96-8.6,14.62-25.34c.94-1.64,2.07-3.06,3.32-4.29,5.97-5.83,14.92-7.04,22.14-3.64.75.35,1.48.76,2.2,1.22,1.07.69,2.08,1.51,3.02,2.42,1.26,1.22,2.4,2.66,3.34,4.29l2.63,4.56h-.01s19.35,33.51,19.35,33.51c7.47,13.08-1.96,29.37-17.04,29.37Z"/>
  </g>
</svg>